<?xml version="1.0" encoding="iso-8859-1"?>
<!-- Generator: Adobe Illustrator 28.7.1, SVG Export Plug-In . SVG Version: 9.03 Build 54978)  -->
<svg version="1.1" xmlns="http://www.w3.org/2000/svg" xmlns:xlink="http://www.w3.org/1999/xlink" x="0px" y="0px"
	 viewBox="0 0 100 100" style="enable-background:new 0 0 100 100;" xml:space="preserve">
<g id="Area51">
	<g>
		<path style="fill:#FFFF4B;" d="M84.712,38.489l10.89,11.84l-10.64,12.08l-11.54,11.31l-11.69,11.19l-11.56,10.3l-10.95-10.92
			l-12.16-10.69l-11.47-11.4l-9.99-11.87l10.51-11.35l10.68-12.18l12.11-10.75l11.27-10.84l10.74,11.37l11.98,10.87L84.712,38.489z
			 M88.872,50.169l-7.01-8.33l-11.2-11.14l-12.16-10.68l-7.72-7.71l-7.98,7.11l-11.58,11.08l-11.41,11.19l-7.54,8.56l7.71,8.39
			l11.63,10.86l12.12,11l7.41,7.84l7.7-7.41l11.96-10.61l10.47-11.94L88.872,50.169z"/>
		<path style="fill:#FED500;" d="M81.862,41.839l7.01,8.33l-7.6,8.21l-10.47,11.94l-11.96,10.61l-7.7,7.41l-7.41-7.84l-12.12-11
			l-11.63-10.86l-7.71-8.39l7.54-8.56l11.41-11.19l11.58-11.08l7.98-7.11l7.72,7.71l12.16,10.68L81.862,41.839z M70.132,51.349
			c0.64-3.58,0.13-6.98-0.64-9.65c-0.77-2.67-4.83-7.99-7.72-9.29c-2.9-1.29-7.09-2.52-12-2.17c-4.91,0.36-7.99,0.9-10.8,2.65
			c-3.04,1.9-5.01,4.38-6.1,6.14c-1.24,2-1.84,4.77-1.91,6.15c-0.14,2.61-0.46,5.56,0.29,8.11c1,3.37,3.33,7.07,5.1,9.3
			c1.76,2.22,3.42,4.23,4.98,6.08s6.31,7.55,8.9,7.58c2.58,0.03,5.17-2.65,7.92-5.62c2.74-2.98,5.73-6.41,7.17-8.58
			C66.762,59.869,69.492,54.929,70.132,51.349z"/>
		<path style="fill:#19DD89;" d="M69.492,41.699c0.77,2.67,1.28,6.07,0.64,9.65c-0.64,3.58-3.37,8.52-4.81,10.7
			c-1.44,2.17-4.43,5.6-7.17,8.58c-2.75,2.97-5.34,5.65-7.92,5.62c-2.59-0.03-7.34-5.73-8.9-7.58s-3.22-3.86-4.98-6.08
			c-1.77-2.23-4.1-5.93-5.1-9.3c-0.75-2.55-0.43-5.5-0.29-8.11c0.07-1.38,0.67-4.15,1.91-6.15c1.09-1.76,3.06-4.24,6.1-6.14
			c2.81-1.75,5.89-2.29,10.8-2.65c4.91-0.35,9.1,0.88,12,2.17C64.662,33.709,68.722,39.029,69.492,41.699z M66.702,47.519
			c0.27-2.27-0.29-3.91-0.29-3.91s-5.03,2.09-6.49,3.15c-2.72,2-4.95,6.09-5.67,7.62c-1.01,2.17-1.44,7.55-1.44,7.55
			s2.98-1.05,3.94-1.39c2.77-0.97,4.08-1.48,7.49-5.65C65.362,53.529,66.392,50.179,66.702,47.519z M48.962,62.039
			c0,0-0.55-2.76-1.06-5.1c-0.69-3.21-1.78-5.99-3.28-7.91c-1.31-1.68-2.12-2.84-4.78-3.99c-1.57-0.67-4.95-1.04-4.95-1.04
			s-0.67,4.86,0.38,7.38c2.24,5.42,3.8,6.66,8.91,9.3C46.192,61.709,48.962,62.039,48.962,62.039z"/>
		<path d="M66.412,43.609c0,0,0.56,1.64,0.29,3.91c-0.31,2.66-1.34,6.01-2.46,7.37c-3.41,4.17-4.72,4.68-7.49,5.65
			c-0.96,0.34-3.94,1.39-3.94,1.39s0.43-5.38,1.44-7.55c0.72-1.53,2.95-5.62,5.67-7.62C61.382,45.699,66.412,43.609,66.412,43.609z"
			/>
		<path d="M47.902,56.939c0.51,2.34,1.06,5.1,1.06,5.1s-2.77-0.33-4.78-1.36c-5.11-2.64-6.67-3.88-8.91-9.3
			c-1.05-2.52-0.38-7.38-0.38-7.38s3.38,0.37,4.95,1.04c2.66,1.15,3.47,2.31,4.78,3.99C46.122,50.949,47.212,53.729,47.902,56.939z"
			/>
		<g>
			
				<polygon style="fill:none;stroke:#000000;stroke-width:1.5;stroke-linecap:round;stroke-linejoin:round;stroke-miterlimit:10;" points="
				50.17,95.212 39.222,84.288 27.059,73.604 15.596,62.199 5.598,50.326 16.111,38.981 26.79,26.803 38.9,16.05 50.17,5.212 
				60.909,16.576 72.889,27.445 84.711,38.488 95.598,50.327 84.961,62.408 73.424,73.723 61.732,84.905 			"/>
			<g>
				<path style="fill:none;stroke:#000000;stroke-linecap:round;stroke-linejoin:round;stroke-miterlimit:10;" d="M59.927,46.762
					c-2.723,1.994-4.959,6.09-5.671,7.616c-1.018,2.174-1.441,7.548-1.441,7.548s2.983-1.046,3.934-1.382
					c2.772-0.98,4.081-1.48,7.497-5.655c1.113-1.36,2.146-4.709,2.461-7.369c0.269-2.266-0.291-3.915-0.291-3.915
					S61.382,45.697,59.927,46.762z"/>
				<path style="fill:none;stroke:#000000;stroke-linecap:round;stroke-linejoin:round;stroke-miterlimit:10;" d="M48.966,62.035
					c0,0-0.555-2.752-1.059-5.091c-0.69-3.218-1.781-5.989-3.283-7.917c-1.309-1.677-2.119-2.834-4.781-3.983
					c-1.568-0.676-4.952-1.049-4.952-1.049s-0.663,4.866,0.379,7.387c2.244,5.415,3.802,6.661,8.916,9.294
					C46.189,61.707,48.966,62.035,48.966,62.035z"/>
				<path style="fill:none;stroke:#000000;stroke-width:1.5;stroke-linecap:round;stroke-linejoin:round;stroke-miterlimit:10;" d="
					M30.958,45.184c-0.137,2.607-0.458,5.559,0.296,8.106c0.993,3.366,3.332,7.072,5.094,9.297c1.764,2.225,3.428,4.234,4.984,6.081
					c1.559,1.847,6.31,7.553,8.896,7.581c2.584,0.028,5.177-2.645,7.922-5.622c2.745-2.978,5.73-6.409,7.169-8.581
					c1.441-2.172,4.176-7.119,4.817-10.695c0.639-3.576,0.122-6.98-0.646-9.648c-0.768-2.668-4.825-7.992-7.722-9.289
					c-2.897-1.297-7.088-2.527-11.998-2.169c-4.91,0.358-7.988,0.897-10.797,2.65c-3.041,1.9-5.013,4.378-6.102,6.132
					C31.631,41.027,31.031,43.801,30.958,45.184z"/>
			</g>
			
				<polyline style="fill:none;stroke:#19DD89;stroke-width:1.5;stroke-linecap:round;stroke-linejoin:round;stroke-miterlimit:10;" points="
				31.217,30.499 42.801,19.422 50.777,12.312 58.499,20.017 			"/>
			
				<polyline style="fill:none;stroke:#19DD89;stroke-width:1.5;stroke-linecap:round;stroke-linejoin:round;stroke-miterlimit:10;" points="
				31.611,69.504 19.981,58.64 12.268,50.253 19.811,41.686 			"/>
			
				<polyline style="fill:none;stroke:#19DD89;stroke-width:1.5;stroke-linecap:round;stroke-linejoin:round;stroke-miterlimit:10;" points="
				70.797,70.319 58.846,80.93 51.14,88.341 43.733,80.503 			"/>
			
				<polyline style="fill:none;stroke:#19DD89;stroke-width:1.5;stroke-linecap:round;stroke-linejoin:round;stroke-miterlimit:10;" points="
				70.665,30.703 81.862,41.843 88.872,50.168 81.271,58.375 			"/>
		</g>
	</g>
</g>
<g id="Layer_1">
</g>
</svg>
